<?xml version="1.0" standalone="no"?>
<!DOCTYPE svg PUBLIC "-//W3C//DTD SVG 20010904//EN"
 "http://www.w3.org/TR/2001/REC-SVG-20010904/DTD/svg10.dtd">
<svg version="1.0" xmlns="http://www.w3.org/2000/svg"
 width="500.000000pt" height="500.000000pt" viewBox="0 0 500.000000 500.000000"
 preserveAspectRatio="xMidYMid meet">

<g transform="translate(0.000000,500.000000) scale(0.100000,-0.100000)"
fill="#000000" stroke="none">
<path d="M2790 3361 c0 -5 14 -14 30 -21 17 -7 40 -24 50 -38 21 -26 27 -14
10 19 -16 30 -90 63 -90 40z"/>
<path d="M1962 3253 c-12 -2 -19 -9 -16 -15 4 -6 -1 -8 -13 -4 -21 7 -65 -5
-64 -17 2 -18 0 -19 -13 -8 -10 9 -15 8 -20 -4 -4 -11 2 -15 24 -15 17 0 30
-4 30 -10 0 -5 8 -10 18 -10 25 0 62 -41 62 -68 0 -27 -28 -42 -79 -42 l-41 0
2 -62 1 -63 7 55 c8 63 1 -149 -9 -255 -5 -57 -9 -70 -23 -69 -14 1 -16 -7
-12 -50 3 -38 2 -47 -6 -36 -9 12 -10 10 -5 -9 5 -16 4 -21 -4 -17 -7 5 -9 1
-5 -9 6 -14 8 -14 20 2 7 10 14 26 14 36 0 9 6 17 14 17 10 0 16 -14 18 -42 3
-42 4 -43 40 -44 55 -2 66 -9 77 -50 18 -64 5 -74 -102 -75 -67 -1 -82 -4 -57
-9 19 -4 31 -8 26 -9 -5 0 -3 -8 4 -16 6 -8 8 -20 4 -27 -12 -19 -14 -39 -3
-32 5 3 16 -1 23 -9 17 -17 122 -22 159 -8 22 9 24 16 30 93 24 323 237 623
532 747 l66 28 -123 7 c-141 8 -207 23 -304 68 -60 28 -81 33 -159 34 -49 1
-100 0 -113 -3z"/>
<path d="M1818 3173 c6 -2 18 -2 25 0 6 3 1 5 -13 5 -14 0 -19 -2 -12 -5z"/>
<path d="M3119 3155 c36 -13 110 -55 165 -92 82 -56 111 -83 163 -153 106
-142 172 -305 188 -467 7 -68 6 -73 -12 -73 -57 0 -496 -21 -540 -26 -49 -5
-53 -8 -53 -31 l0 -25 335 4 c184 2 337 7 340 10 13 13 -16 227 -44 319 -33
109 -58 161 -111 236 -103 144 -243 251 -392 298 -100 32 -123 32 -39 0z"/>
<path d="M2533 3010 c-26 -11 -43 -26 -43 -36 0 -12 3 -14 13 -6 6 5 30 21 51
36 46 31 38 33 -21 6z"/>
<path d="M3133 2953 c9 -2 25 -2 35 0 9 3 1 5 -18 5 -19 0 -27 -2 -17 -5z"/>
<path d="M3030 2944 c-9 -3 -20 -15 -25 -27 -15 -32 -119 -56 -342 -77 -130
-12 -143 -16 -143 -41 0 -15 7 -19 34 -19 19 0 46 4 61 10 30 11 278 65 342
74 30 4 46 2 57 -9 16 -16 55 -18 96 -5 24 8 24 8 3 9 -37 2 -26 17 20 29 l42
11 -47 -6 c-29 -3 -48 -1 -48 5 0 5 21 15 48 20 l47 11 -47 -5 c-46 -5 -68 9
-30 19 9 3 1 5 -18 5 -19 0 -42 -2 -50 -4z"/>
<path d="M1839 2860 c-3 -36 -5 -67 -3 -69 11 -12 15 13 12 70 l-3 64 -6 -65z"/>
<path d="M3148 2863 c6 -2 18 -2 25 0 6 3 1 5 -13 5 -14 0 -19 -2 -12 -5z"/>
<path d="M1832 2760 c0 -14 2 -19 5 -12 2 6 2 18 0 25 -3 6 -5 1 -5 -13z"/>
<path d="M3183 2766 c-17 -8 -39 -26 -48 -39 -20 -31 -65 -38 -310 -46 l-180
-6 -3 -24 c-4 -23 -3 -24 55 -18 32 4 105 13 163 21 58 9 141 16 186 16 68 0
84 -3 99 -20 29 -32 78 -41 135 -24 60 18 105 65 90 95 -26 48 -126 72 -187
45z"/>
<path d="M3108 2535 c-2 -3 -156 -6 -341 -6 -222 -1 -339 -5 -344 -12 -10 -17
29 -39 62 -33 17 3 83 8 147 12 117 7 118 7 157 -21 l40 -27 102 11 c142 16
239 47 223 72 -6 10 -37 12 -46 4z"/>
<path d="M1808 2363 c7 -3 16 -2 19 1 4 3 -2 6 -13 5 -11 0 -14 -3 -6 -6z"/>
<path d="M2455 2028 c-5 -17 -35 -215 -35 -233 0 -12 17 -15 93 -13 l92 2 -82
3 -83 4 0 28 c0 16 3 43 6 60 l7 31 81 2 81 2 -78 5 c-42 3 -78 9 -78 14 -1 4
2 27 5 52 l7 44 87 4 87 3 -93 2 c-67 1 -94 -1 -97 -10z"/>
<path d="M2933 1973 c-12 -2 -27 -11 -33 -19 -16 -18 -11 -18 27 1 65 32 117
-20 94 -95 -18 -61 -81 -88 -129 -54 -12 8 -22 11 -22 5 0 -15 34 -31 65 -31
62 0 105 49 105 120 0 52 -49 85 -107 73z"/>
<path d="M3307 1965 c32 -15 52 -53 38 -74 -8 -14 -135 -15 -135 -1 0 21 24
59 44 69 19 10 19 11 1 8 -28 -3 -65 -63 -65 -107 0 -49 30 -80 76 -80 39 0
74 15 74 31 0 6 -10 3 -22 -5 -24 -17 -65 -21 -84 -8 -13 8 -34 46 -34 61 0 6
35 11 83 13 l82 3 -3 35 c-3 41 -16 55 -57 63 l-30 6 32 -14z"/>
<path d="M2670 1965 c0 -3 12 -24 27 -46 l26 -40 -48 -49 c-27 -28 -45 -50
-39 -50 5 0 28 18 49 40 21 22 42 40 46 40 4 0 18 -18 30 -40 13 -22 26 -40
31 -40 13 0 10 9 -22 55 l-29 43 41 48 42 49 -46 -44 -46 -43 -24 41 c-20 35
-38 52 -38 36z"/>
<path d="M2860 1945 c0 -14 -7 -66 -16 -116 -8 -49 -13 -96 -11 -102 5 -16 27
76 31 130 1 23 8 48 14 55 12 15 5 58 -9 58 -5 0 -9 -11 -9 -25z"/>
<path d="M3081 1880 c-8 -50 -11 -93 -8 -96 3 -4 9 17 13 45 8 65 40 113 84
128 31 11 32 12 9 12 -14 1 -35 -8 -47 -19 -12 -11 -24 -20 -27 -20 -4 0 -3 9
0 20 3 11 2 20 -2 20 -5 0 -15 -41 -22 -90z"/>
<path d="M3417 1952 c-28 -31 -20 -51 30 -75 52 -24 63 -45 37 -72 -17 -16
-32 -16 -94 0 -24 6 -24 5 3 -10 39 -22 86 -16 109 15 25 34 16 53 -35 76 -46
21 -59 50 -31 71 10 7 13 13 7 13 -5 0 -17 -8 -26 -18z"/>
<path d="M3471 1966 c12 -10 60 -16 54 -6 -3 5 -18 10 -32 10 -15 0 -24 -2
-22 -4z"/>
<path d="M3577 1952 c-28 -31 -20 -51 30 -75 97 -46 51 -110 -52 -73 -20 8
-20 7 -1 -8 45 -36 132 -4 124 46 -3 21 -10 27 -63 50 -39 17 -46 54 -13 67
14 6 17 10 7 10 -9 1 -23 -7 -32 -17z"/>
<path d="M3655 1960 c28 -12 37 -12 30 0 -3 6 -16 10 -28 9 -21 0 -21 -1 -2
-9z"/>
</g>
</svg>
